<?xml version="1.0" encoding="UTF-8"?>
<svg width="256" height="256" version="1.2" baseProfile="tiny-ps" viewBox="0 0 240 240" xml:space="preserve" xmlns="http://www.w3.org/2000/svg" xmlns:xlink="http://www.w3.org/1999/xlink">
<title>ANDOU Software LLC</title>
<g>

<path d="m240.15 120.15a120 120 0 0 1-120 120 120 120 0 0 1-120-120 120 120 0 0 1 120-120 120 120 0 0 1 120 120z" style="fill:#ffffff;stop-color:#000000"/><path d="m120.15 0.11719c-66.293 0-120.04 53.742-120.04 120.04 0 66.293 53.742 120.04 120.04 120.04 66.293 0 120.04-53.742 120.04-120.04 0-66.293-53.742-120.04-120.04-120.04zm0 0.070312c66.255 0 119.96 53.71 119.96 119.96 0 66.255-53.71 119.96-119.96 119.96-66.255 0-119.96-53.71-119.96-119.96 0-66.255 53.71-119.96 119.96-119.96z" style="fill-opacity:.28;stop-color:#000000"/><rect x="527.78" y="616.51" width="0" height="0" style="fill:#000000;stroke-width:.9375"/><path d="m72.879 72.937h-43.848v-34.02h45.108q0.252-9.828 0.504-15.876t0.252-6.3h34.776q0 0.252-0.756 6.3t-1.512 15.876h88.452v34.02h-91.476q0 0.252-0.504 5.544-0.252 5.04-0.504 9.072 1.008 0 2.016 0 1.008-0.252 2.016-0.504 21.924-1.764 42.084 4.032t33.516 20.916q13.608 15.12 14.364 40.572 0 19.656-5.796 33.768-5.544 13.86-13.104 22.68-7.308 9.072-13.104 13.356t-5.796 4.284h-47.628q0.504 0 8.064-5.544 7.812-5.292 17.64-15.372 10.08-9.828 17.64-23.436t7.812-29.988q0-8.064-3.024-14.112-3.024-6.3-8.568-10.332-5.292 15.12-13.356 31.5-7.812 16.128-18.144 30.492t-22.428 23.184q-12.096 8.82-25.704 8.82-10.584 0-20.916-5.796-10.332-5.544-17.136-18.396-6.552-13.104-6.3-34.524 0.756-22.68 13.104-39.564 12.6-17.136 32.004-26.712 0-5.796 0-11.844t0.252-12.096zm29.736 49.644q0.252 8.064 1.26 16.38t2.52 17.64q4.032-8.316 8.064-18.144t6.3-19.152q-4.536-0.756-9.828-0.504-5.04 0.252-8.316 1.512 0 0.252 0 1.008t0 1.26zm-28.476 63.756q1.512 0 3.024-0.504t3.024-1.512q-2.016-9.576-4.032-22.932-2.016-13.608-2.772-28.224-6.804 7.056-10.836 15.12-3.78 8.064-4.536 15.12-1.26 11.088 2.772 16.884t13.356 6.048z" style="stroke-width:13.5px"/><path d="m176.45 26.263h19.406v15.188h-19.406z" style="stroke-width:13.5"/></g>
</svg>
